<svg xmlns="http://www.w3.org/2000/svg" xmlns:xlink="http://www.w3.org/1999/xlink" width="500" zoomAndPan="magnify" viewBox="0 0 375 374.999991" height="500" preserveAspectRatio="xMidYMid meet" version="1.0"><defs><clipPath id="10ca47e5c1"><path d="M 17.726562 2 L 357.476562 2 L 357.476562 374 L 17.726562 374 Z M 17.726562 2 " clip-rule="nonzero"/></clipPath><clipPath id="5ee956ff5f"><path d="M 17.726562 92 L 357.476562 92 L 357.476562 375 L 17.726562 375 Z M 17.726562 92 " clip-rule="nonzero"/></clipPath></defs><rect x="-37.5" width="450" fill="#ffffff" y="-37.499999" height="449.999989" fill-opacity="1"/><rect x="-37.5" width="450" fill="#fcfcfc" y="-37.499999" height="449.999989" fill-opacity="1"/><g clip-path="url(#10ca47e5c1)"><path fill="#cbc8d2" d="M 187.152344 131.492188 C 188.578125 135.464844 186.101562 143.554688 186.101562 143.554688 C 186.101562 146.851562 188.203125 149.101562 186.851562 149.476562 C 186.328125 150.824219 184.679688 151.347656 182.128906 151.347656 C 181.980469 152.171875 181.90625 153.070312 181.90625 154.269531 C 181.753906 156.59375 184.078125 164.984375 184.078125 164.984375 L 153.039062 190.609375 C 153.039062 190.609375 154.464844 169.105469 154.613281 164.984375 C 154.691406 160.863281 145.019531 155.992188 145.019531 155.992188 C 145.09375 139.0625 146.441406 132.917969 147.792969 130.746094 C 149.140625 128.570312 154.613281 125.050781 156.863281 123.550781 C 159.113281 122.054688 161.0625 120.03125 161.0625 120.03125 C 161.0625 120.03125 169.085938 120.253906 174.480469 120.554688 C 177.554688 120.703125 179.207031 122.277344 180.328125 124.300781 C 184.152344 121.828125 187.226562 116.359375 187.226562 111.863281 C 187.226562 110.589844 187.003906 109.539062 186.476562 108.640625 C 186.179688 104.222656 197.199219 105.269531 197.199219 108.640625 C 197.199219 113.285156 192.175781 126.324219 188.203125 128.644531 C 187.601562 129.019531 187.003906 129.246094 186.402344 129.394531 C 186.703125 130.144531 186.925781 130.820312 187.152344 131.492188 Z M 273.820312 260.964844 C 271.34375 259.539062 267.371094 259.539062 264.972656 260.964844 C 263.773438 261.636719 263.171875 262.613281 263.171875 263.511719 C 263.171875 264.410156 263.773438 266.882812 264.972656 267.632812 C 267.445312 269.054688 271.421875 269.054688 273.820312 267.632812 C 275.019531 266.957031 275.617188 264.484375 275.617188 263.511719 C 275.695312 262.613281 275.019531 261.714844 273.820312 260.964844 Z M 224.261719 28.097656 C 219.316406 26.222656 181.378906 2.996094 181.378906 2.996094 L 176.207031 2.996094 L 176.207031 68.105469 L 227.636719 38.734375 C 227.636719 38.734375 229.210938 30.046875 224.261719 28.097656 Z M 17.792969 188.734375 L 17.792969 282.917969 L 85.265625 321.878906 C 90.289062 324.800781 95.988281 326 101.609375 325.625 L 159.789062 279.996094 C 159.789062 279.996094 131.074219 224.476562 109.632812 217.730469 C 108.433594 218.257812 107.757812 218.554688 107.757812 218.554688 C 107.007812 218.332031 17.792969 188.734375 17.792969 188.734375 Z M 188.800781 138.238281 C 188.5 138.3125 188.277344 138.460938 187.976562 138.613281 Z M 188.800781 138.238281 C 190.824219 137.710938 192.925781 139.210938 192.925781 141.457031 L 192.925781 150.523438 L 198.097656 153.519531 L 203.121094 143.78125 L 196.824219 134.789062 Z M 101.683594 205.96875 L 130.175781 149.625 L 101.683594 111.636719 C 96.4375 108.714844 53.628906 85.789062 48.605469 82.867188 L 39.832031 81.667969 L 39.832031 183.640625 L 81.816406 205.96875 C 86.839844 208.890625 104.082031 212.1875 101.683594 205.96875 Z M 355.613281 308.167969 C 353.140625 306.742188 349.167969 306.742188 346.765625 308.167969 C 345.566406 308.839844 344.96875 309.816406 344.96875 310.714844 C 344.96875 311.613281 345.566406 314.160156 346.765625 314.835938 C 349.242188 316.257812 353.214844 316.257812 355.613281 314.835938 C 356.8125 314.160156 357.414062 311.613281 357.414062 310.714844 C 357.414062 309.816406 356.8125 308.839844 355.613281 308.167969 Z M 157.988281 318.957031 C 155.515625 317.53125 151.539062 317.53125 149.140625 318.957031 C 147.941406 319.628906 147.34375 320.605469 147.34375 321.503906 C 147.34375 322.402344 147.941406 324.425781 149.140625 325.101562 C 151.617188 326.523438 155.589844 326.523438 157.988281 325.101562 C 159.1875 324.425781 159.789062 322.402344 159.789062 321.503906 C 159.863281 320.605469 159.261719 319.707031 157.988281 318.957031 Z M 239.78125 366.160156 C 237.308594 364.734375 233.335938 364.734375 230.9375 366.160156 C 229.738281 366.832031 229.136719 367.808594 229.136719 368.707031 C 229.136719 369.605469 229.738281 372.003906 230.9375 372.675781 C 233.410156 374.101562 237.382812 374.101562 239.78125 372.675781 C 240.980469 372.003906 241.582031 369.605469 241.582031 368.707031 C 241.582031 367.808594 240.980469 366.832031 239.78125 366.160156 Z M 305.683594 187.910156 L 299.234375 190.910156 C 297.960938 192.40625 291.960938 193.082031 288.0625 195.40625 C 288.0625 195.40625 288.0625 195.40625 287.988281 195.40625 C 287.765625 195.554688 287.613281 195.628906 287.390625 195.777344 C 287.316406 195.855469 287.316406 195.855469 287.238281 195.929688 C 283.566406 198.851562 276.667969 206.71875 278.542969 224.699219 C 278.542969 224.699219 280.792969 231.292969 285.066406 231.445312 C 285.140625 232.867188 286.640625 231.667969 286.414062 233.390625 C 286.339844 233.839844 286.265625 234.367188 286.265625 234.890625 C 285.890625 241.257812 277.792969 271.679688 281.542969 296.554688 C 281.542969 296.554688 286.339844 305.019531 293.6875 304.269531 C 301.109375 303.519531 302.234375 301.050781 307.558594 300.898438 C 312.878906 300.75 317.304688 298.578125 318.726562 295.054688 C 318.726562 295.054688 315.652344 292.28125 317.378906 282.917969 C 319.101562 273.550781 323.675781 247.628906 316.328125 236.238281 C 316.328125 236.238281 316.328125 235.863281 316.328125 235.191406 C 320.003906 232.640625 320.527344 229.421875 317.378906 226.796875 C 317.679688 225.523438 318.128906 224.175781 318.652344 222.976562 C 320.902344 224.851562 326.148438 222.675781 327.273438 221.777344 C 327.273438 221.777344 326.675781 218.40625 327.648438 214.0625 C 327.648438 214.0625 326.601562 194.054688 323.375 189.710938 C 320.300781 185.289062 305.683594 187.910156 305.683594 187.910156 Z M 237.234375 130.070312 L 249.605469 137.1875 L 249.003906 122.203125 L 242.105469 119.429688 Z M 237.234375 130.070312 " fill-opacity="1" fill-rule="nonzero"/></g><path fill="#dedce1" d="M 277.792969 125.425781 L 277.792969 219.007812 C 277.792969 224.175781 275.019531 228.972656 270.519531 231.59375 L 113.832031 321.878906 C 110.007812 324.050781 105.882812 325.324219 101.683594 325.625 L 101.683594 223.949219 C 101.683594 223.949219 104.609375 221.628906 109.78125 217.65625 C 125.300781 210.316406 232.886719 156.59375 257.925781 144.082031 L 260.175781 138.910156 Z M 113.832031 209.492188 C 110.007812 211.664062 105.882812 211.589844 101.683594 211.964844 L 101.683594 111.5625 C 101.683594 108.640625 108.730469 105.792969 112.480469 103.621094 L 201.171875 53.722656 C 202.222656 52.671875 205.746094 50.949219 206.871094 49.976562 C 211.441406 46.078125 215.492188 44.804688 220.589844 41.734375 C 223.289062 40.085938 225.464844 38.8125 227.710938 36.5625 C 228.535156 35.8125 229.136719 33.566406 230.035156 33.042969 L 232.210938 39.484375 L 232.210938 135.839844 C 232.210938 141.234375 229.285156 146.253906 224.636719 149.027344 L 198.171875 162.886719 L 198.171875 144.378906 C 198.171875 141.832031 195.398438 140.257812 193.226562 141.535156 L 187.828125 144.679688 L 186.703125 149.101562 L 183.328125 147.378906 L 173.28125 153.222656 C 170.660156 154.796875 169.007812 157.566406 169.007812 160.640625 L 172.683594 174.050781 Z M 176.058594 122.351562 C 176.058594 126.996094 179.355469 128.871094 183.402344 126.546875 C 187.453125 124.226562 190.75 118.53125 190.75 113.886719 C 190.75 109.242188 187.453125 107.367188 183.402344 109.691406 C 179.355469 112.011719 176.058594 117.707031 176.058594 122.351562 Z M 244.65625 104.894531 L 256.875 103.695312 L 258.898438 93.582031 L 242.632812 102.945312 L 237.234375 130.070312 L 247.953125 123.851562 Z M 244.65625 104.894531 " fill-opacity="1" fill-rule="nonzero"/><g clip-path="url(#5ee956ff5f)"><path fill="#36373b" d="M 159.863281 321.578125 L 159.863281 323.902344 C 159.863281 324.800781 159.261719 325.773438 158.0625 326.449219 C 155.589844 327.871094 151.617188 327.871094 149.21875 326.449219 C 148.015625 325.773438 147.417969 324.800781 147.417969 323.902344 L 147.417969 321.578125 C 147.417969 322.476562 148.015625 323.453125 149.21875 324.125 C 151.691406 325.550781 155.664062 325.550781 158.0625 324.125 C 159.261719 323.375 159.863281 322.476562 159.863281 321.578125 Z M 151.089844 230.167969 C 151.015625 230.246094 150.941406 230.246094 150.867188 230.320312 L 150.042969 230.320312 L 150.042969 321.578125 C 150.042969 322.101562 150.417969 322.628906 151.089844 323.003906 C 152.441406 323.824219 154.691406 323.824219 156.113281 323.003906 C 156.789062 322.628906 157.164062 322.101562 157.164062 321.578125 L 157.164062 230.320312 L 156.339844 230.320312 C 156.265625 230.246094 156.1875 230.246094 156.113281 230.167969 C 154.691406 229.34375 152.441406 229.34375 151.089844 230.167969 Z M 348.640625 312.210938 C 349.992188 313.035156 352.238281 313.035156 353.664062 312.210938 C 354.339844 311.839844 354.714844 311.3125 354.714844 310.789062 L 354.714844 219.457031 L 353.890625 219.457031 C 353.8125 219.378906 353.738281 219.378906 353.664062 219.304688 C 352.316406 218.480469 350.066406 218.480469 348.640625 219.304688 C 348.566406 219.378906 348.492188 219.378906 348.417969 219.457031 L 347.589844 219.457031 L 347.589844 310.714844 C 347.589844 311.3125 347.964844 311.839844 348.640625 312.210938 Z M 266.921875 172.179688 C 266.847656 172.253906 266.773438 172.253906 266.699219 172.328125 L 265.871094 172.328125 L 265.871094 263.585938 C 265.871094 264.109375 266.246094 264.636719 266.921875 265.011719 C 268.273438 265.835938 270.519531 265.835938 271.945312 265.011719 C 272.621094 264.636719 272.996094 264.109375 272.996094 263.585938 L 272.996094 172.328125 L 272.171875 172.328125 C 272.09375 172.253906 272.019531 172.253906 271.945312 172.179688 C 270.519531 171.355469 268.273438 171.355469 266.921875 172.179688 Z M 203.496094 129.769531 C 205.671875 132.46875 210.167969 135.914062 210.167969 135.914062 C 210.167969 135.914062 219.089844 134.714844 221.640625 132.691406 C 221.339844 127.523438 226.8125 123.175781 226.136719 115.835938 C 225.386719 108.492188 219.464844 106.242188 219.464844 106.242188 C 209.792969 99.351562 200.347656 108.566406 199.371094 110.664062 C 198.472656 112.761719 199.746094 114.558594 199.746094 114.558594 C 199.746094 114.558594 201.246094 127.074219 203.496094 129.769531 Z M 271.496094 114.933594 L 259.949219 108.265625 L 258.898438 103.023438 L 256.949219 103.546875 L 256.949219 103.621094 L 256.5 103.695312 L 253.578125 104.519531 L 252.828125 104.070312 L 244.804688 104.894531 L 254.625 130.820312 L 249.753906 137.261719 L 237.382812 130.144531 L 242.78125 103.023438 L 246.90625 100.625 L 232.210938 92.234375 L 232.210938 126.472656 L 232.136719 126.546875 C 231.6875 131.417969 228.910156 135.839844 224.636719 138.3125 L 198.171875 153.597656 L 193 150.597656 L 193 149.699219 L 169.007812 163.859375 L 169.007812 170.53125 L 113.832031 202.371094 C 110.007812 204.546875 105.882812 205.820312 101.683594 206.117188 C 96.0625 206.570312 90.363281 205.292969 85.339844 202.371094 L 39.90625 176.148438 L 17.792969 188.734375 L 85.265625 227.699219 C 94.113281 232.792969 104.984375 232.792969 113.832031 227.699219 L 271.496094 136.738281 C 279.890625 131.867188 279.890625 119.804688 271.496094 114.933594 Z M 229.960938 303.445312 C 226.960938 302.996094 224.414062 298.277344 223.589844 297.453125 C 222.765625 296.628906 219.765625 294.90625 217.066406 293.480469 C 214.367188 292.058594 212.71875 288.910156 212.71875 288.910156 C 212.191406 297.078125 211.742188 305.167969 211.742188 305.167969 C 213.542969 307.792969 212.792969 312.4375 212.792969 312.4375 C 208.519531 316.410156 202.820312 311.464844 201.773438 310.191406 C 200.722656 308.917969 196.898438 307.566406 194.050781 306.367188 C 191.199219 305.246094 188.800781 301.648438 188.800781 300.523438 C 188.800781 295.804688 192.175781 294.304688 192.175781 294.304688 C 194.273438 294.304688 199.222656 295.203125 199.222656 295.203125 C 198.996094 287.863281 199.074219 277.671875 198.996094 274 C 198.921875 268.679688 198.171875 251 196.972656 234.441406 C 195.773438 217.882812 200.347656 197.800781 200.347656 197.800781 L 235.433594 192.933594 C 235.433594 192.933594 237.535156 206.34375 237.757812 210.390625 C 237.984375 214.4375 235.507812 222.601562 235.359375 224.324219 C 235.210938 226.050781 234.234375 245.003906 234.234375 247.027344 C 234.234375 249.050781 236.109375 256.691406 236.484375 267.484375 C 236.558594 270.253906 236.558594 273.476562 236.484375 276.773438 C 237.007812 276.847656 237.457031 276.996094 237.832031 277.222656 C 237.910156 277.296875 237.984375 277.296875 238.058594 277.371094 L 238.882812 277.371094 L 238.882812 368.632812 C 238.882812 369.15625 238.507812 369.679688 237.832031 370.054688 C 236.484375 370.878906 234.234375 370.878906 232.808594 370.054688 C 232.136719 369.679688 231.761719 369.15625 231.761719 368.632812 L 231.761719 303.371094 C 231.234375 303.597656 230.636719 303.597656 229.960938 303.445312 Z M 223.289062 286.289062 C 223.289062 284.339844 222.390625 267.183594 221.265625 260.363281 C 220.140625 253.546875 217.214844 235.5625 217.214844 235.5625 C 217.214844 235.5625 215.867188 245.53125 215.492188 250.398438 C 215.117188 255.34375 214.515625 267.109375 213.691406 275.800781 C 213.390625 278.496094 213.09375 282.390625 212.867188 286.511719 C 213.390625 285.089844 214.890625 284.191406 217.066406 284.492188 C 220.214844 284.863281 223.289062 286.289062 223.289062 286.289062 Z M 321.726562 186.113281 C 322.550781 179.445312 323.375 172.402344 321.050781 166.109375 C 320.527344 164.609375 319.777344 163.113281 318.578125 161.914062 C 317.601562 160.9375 316.253906 160.191406 314.828125 160.113281 C 312.730469 155.695312 309.355469 152.171875 303.882812 152.398438 C 293.164062 152.773438 290.839844 161.386719 290.839844 161.386719 C 290.839844 161.386719 290.6875 174.800781 293.910156 177.421875 C 297.136719 180.046875 302.308594 185.363281 302.308594 185.363281 C 302.308594 185.363281 307.707031 186.488281 311.15625 185.214844 C 311.15625 185.214844 312.128906 184.464844 313.328125 182.96875 C 313.179688 184.242188 313.03125 185.515625 312.953125 186.789062 C 312.65625 189.933594 312.730469 193.082031 313.179688 196.152344 C 313.480469 198.101562 313.929688 200.050781 314.828125 201.773438 C 315.730469 203.496094 317.152344 204.996094 318.878906 206.042969 C 320.078125 206.792969 321.277344 206.867188 322.476562 206.195312 C 320.152344 199.824219 320.902344 192.78125 321.726562 186.113281 Z M 300.585938 323.226562 C 298.859375 323.078125 295.035156 322.851562 292.863281 322.628906 C 290.6875 322.402344 288.363281 323.75 288.589844 327.199219 C 288.589844 327.199219 289.265625 329.894531 293.164062 331.992188 C 297.0625 334.015625 301.484375 334.988281 303.359375 335.890625 C 305.234375 336.789062 310.332031 339.1875 312.429688 336.9375 C 312.429688 336.9375 314.980469 334.464844 311.980469 330.046875 Z M 239.78125 371.253906 C 237.308594 372.675781 233.335938 372.675781 230.9375 371.253906 C 229.738281 370.578125 229.136719 369.605469 229.136719 368.707031 L 229.136719 371.027344 C 229.136719 371.929688 229.738281 372.902344 230.9375 373.578125 C 233.410156 375 237.382812 375 239.78125 373.578125 C 240.980469 372.902344 241.582031 371.929688 241.582031 371.027344 L 241.582031 368.707031 C 241.582031 369.679688 240.980469 370.578125 239.78125 371.253906 Z M 355.613281 313.261719 C 353.140625 314.683594 349.167969 314.683594 346.765625 313.261719 C 345.566406 312.585938 344.96875 311.613281 344.96875 310.714844 L 344.96875 313.035156 C 344.96875 313.9375 345.566406 314.910156 346.765625 315.585938 C 349.242188 317.007812 353.214844 317.007812 355.613281 315.585938 C 356.8125 314.910156 357.414062 313.9375 357.414062 313.035156 L 357.414062 310.714844 C 357.414062 311.613281 356.8125 312.585938 355.613281 313.261719 Z M 288.890625 330.269531 C 288.890625 330.269531 288.289062 329.59375 286.488281 329.445312 C 284.765625 329.296875 280.941406 329.070312 278.769531 328.847656 C 276.59375 328.621094 274.269531 329.96875 274.496094 333.417969 C 274.496094 333.417969 275.167969 336.113281 279.066406 338.210938 C 282.964844 340.234375 287.390625 341.207031 289.265625 342.109375 C 291.0625 343.007812 296.234375 345.40625 298.335938 343.15625 C 298.335938 343.15625 300.882812 340.683594 297.886719 336.265625 C 294.886719 331.769531 288.890625 330.269531 288.890625 330.269531 Z M 275.695312 265.835938 L 275.695312 263.511719 C 275.695312 264.410156 275.09375 265.382812 273.894531 266.058594 C 271.421875 267.484375 267.445312 267.484375 265.046875 266.058594 C 263.847656 265.382812 263.25 264.410156 263.25 263.511719 L 263.25 265.835938 C 263.25 266.734375 263.847656 267.707031 265.046875 268.382812 C 267.523438 269.804688 271.496094 269.804688 273.894531 268.382812 C 275.019531 267.707031 275.695312 266.734375 275.695312 265.835938 Z M 275.695312 265.835938 " fill-opacity="1" fill-rule="nonzero"/></g><path fill="#efefef" d="M 270.519531 177.046875 L 296.761719 192.183594 C 294.136719 193.082031 290.089844 193.980469 287.390625 195.855469 C 287.390625 195.855469 287.390625 195.929688 287.316406 195.929688 L 270.519531 186.265625 Z M 327.722656 213.984375 C 326.972656 215.710938 325.925781 216.832031 324.875 217.582031 L 347.589844 230.695312 L 347.589844 221.476562 L 327.425781 209.863281 C 327.648438 212.335938 327.722656 213.984375 327.722656 213.984375 Z M 271.871094 170.828125 C 270.519531 170.003906 268.273438 170.003906 266.847656 170.828125 C 265.421875 171.652344 265.496094 172.925781 266.847656 173.675781 C 268.195312 174.425781 270.445312 174.5 271.871094 173.675781 C 273.292969 172.925781 273.292969 171.652344 271.871094 170.828125 Z M 353.664062 218.03125 C 352.316406 217.207031 350.066406 217.207031 348.640625 218.03125 C 347.21875 218.855469 347.292969 220.128906 348.640625 220.878906 C 349.992188 221.628906 352.238281 221.703125 353.664062 220.878906 C 355.015625 220.128906 355.015625 218.855469 353.664062 218.03125 Z M 232.210938 34.464844 C 232.210938 31.46875 230.785156 28.546875 227.785156 26.824219 L 181.378906 0 L 176.207031 2.996094 L 222.988281 29.96875 C 226.289062 31.917969 226.4375 36.5625 223.289062 38.660156 L 218.039062 41.734375 L 205.144531 49.226562 L 113.90625 101.898438 C 105.058594 106.992188 94.1875 106.992188 85.339844 101.898438 L 45.082031 78.671875 L 39.90625 81.667969 L 85.339844 107.890625 C 94.1875 112.988281 105.058594 112.988281 113.90625 107.890625 L 168.785156 76.199219 L 144.269531 184.765625 L 169.085938 170.453125 L 169.085938 160.714844 C 169.085938 157.640625 170.734375 154.796875 173.359375 153.296875 L 174.78125 152.472656 L 180.40625 127.597656 C 177.929688 127.671875 176.207031 125.800781 176.207031 122.425781 C 176.207031 117.78125 179.503906 112.089844 183.554688 109.765625 C 183.929688 109.539062 184.304688 109.390625 184.601562 109.242188 L 195.550781 60.839844 L 215.339844 49.375 L 202.148438 107.667969 C 205.746094 104.671875 212.492188 101.296875 219.390625 106.019531 L 232.210938 48.476562 Z M 244.503906 149.925781 C 244.957031 153.972656 246.15625 166.785156 246.15625 166.785156 C 245.105469 172.027344 236.484375 175.773438 236.257812 178.023438 C 235.882812 181.691406 235.808594 185.589844 235.882812 187.910156 C 235.957031 191.734375 235.507812 192.933594 235.507812 192.933594 C 232.886719 196.230469 217.742188 201.546875 208.96875 200.574219 C 200.199219 199.601562 199.824219 197.054688 199.824219 197.054688 C 199.824219 197.054688 195.097656 193.757812 193.300781 186.488281 C 190.078125 186.1875 189.476562 179.371094 189.476562 179.371094 C 186.925781 160.640625 192.027344 153.445312 192.625 152.621094 C 192.625 152.621094 192.625 152.546875 192.699219 152.546875 C 193.375 151.648438 195.773438 150.148438 198.25 148.578125 L 198.25 144.457031 C 198.25 142.359375 196.375 140.933594 194.5 141.160156 L 200.121094 116.359375 C 200.648438 119.953125 201.921875 127.671875 203.570312 129.695312 C 205.746094 132.394531 210.242188 135.839844 210.242188 135.839844 C 210.242188 135.839844 211.21875 135.6875 212.644531 135.464844 L 212.417969 136.363281 C 214.066406 135.988281 215.792969 135.613281 216.617188 135.464844 C 217.515625 135.238281 221.039062 134.492188 222.089844 133.742188 C 224.1875 133.515625 225.238281 136.664062 225.386719 137.261719 C 225.613281 136.589844 237.234375 138.535156 240.082031 141.082031 C 241.65625 142.507812 244.054688 145.878906 244.503906 149.925781 Z M 156.113281 228.894531 C 154.765625 228.070312 152.515625 228.070312 151.089844 228.894531 C 149.667969 229.71875 149.742188 230.992188 151.089844 231.742188 C 152.441406 232.492188 154.691406 232.566406 156.113281 231.742188 C 157.464844 230.992188 157.464844 229.644531 156.113281 228.894531 Z M 237.832031 276.023438 C 236.484375 275.199219 234.234375 275.199219 232.808594 276.023438 C 231.386719 276.847656 231.460938 278.121094 232.808594 278.871094 C 234.160156 279.621094 236.410156 279.695312 237.832031 278.871094 C 239.183594 278.121094 239.183594 276.847656 237.832031 276.023438 Z M 154.765625 244.179688 L 231.835938 288.6875 L 231.835938 279.46875 L 154.765625 234.964844 Z M 258.898438 93.582031 L 265.871094 127.820312 L 249.605469 137.1875 L 242.632812 102.945312 Z M 259.949219 113.4375 L 256.652344 115.382812 L 258.824219 105.570312 L 256.800781 106.769531 L 255.375 113.660156 C 255.152344 114.636719 255.078125 115.382812 255 115.835938 C 254.703125 115.460938 254.328125 115.085938 253.878906 114.636719 L 249.828125 110.8125 L 247.878906 111.9375 L 253.503906 117.109375 L 250.203125 119.054688 L 250.578125 120.628906 L 254.550781 118.230469 L 254.925781 119.730469 L 250.953125 122.128906 L 251.328125 123.625 L 255.300781 121.230469 L 256.125 124.675781 L 257.851562 123.625 L 257.027344 120.179688 L 261 117.855469 L 260.625 116.359375 L 256.652344 118.679688 L 256.277344 117.183594 L 260.25 114.859375 Z M 259.949219 113.4375 " fill-opacity="1" fill-rule="nonzero"/><path fill="#f7b487" d="M 247.128906 179.222656 C 247.65625 181.992188 242.707031 198.402344 242.40625 200.949219 C 242.105469 203.496094 241.65625 207.84375 241.132812 209.640625 C 240.53125 211.363281 239.332031 212.9375 237.683594 213.085938 C 237.757812 212.113281 237.832031 211.289062 237.832031 210.539062 C 237.683594 207.542969 236.484375 199.449219 235.882812 195.40625 C 235.882812 195.40625 236.410156 182.59375 237.234375 179.894531 L 236.257812 178.097656 C 236.257812 177.871094 236.785156 174.199219 237.308594 172.402344 C 237.382812 172.253906 237.382812 172.101562 237.457031 171.953125 C 237.457031 171.953125 241.808594 171.953125 244.355469 169.78125 C 244.429688 169.707031 244.429688 169.707031 244.503906 169.628906 C 244.582031 169.554688 244.730469 169.40625 244.804688 169.332031 C 244.878906 169.253906 244.878906 169.253906 244.957031 169.179688 C 245.105469 169.03125 245.253906 168.882812 245.332031 168.65625 C 245.332031 168.65625 246.605469 176.449219 247.128906 179.222656 Z M 190.226562 179.894531 L 191.425781 190.308594 C 191.425781 190.308594 185.503906 202.074219 188.953125 224.324219 C 188.953125 224.324219 187.226562 229.496094 187.902344 234.140625 C 188.050781 235.414062 193.074219 238.035156 194.574219 237.585938 C 196.074219 237.136719 197.421875 236.164062 197.796875 234.515625 C 198.171875 232.867188 196 234.515625 196 234.515625 C 196 234.515625 197.347656 229.496094 195.175781 226.273438 C 195.175781 226.273438 200.871094 197.652344 200.722656 193.007812 C 200.574219 188.285156 201.320312 182.667969 201.320312 182.667969 C 201.320312 182.667969 194.125 181.917969 190.226562 179.894531 Z M 210.992188 134.191406 C 210.992188 134.191406 210.09375 133.589844 209.792969 130.746094 C 209.492188 127.972656 209.417969 123.550781 206.496094 121.976562 C 206.496094 121.976562 205.296875 120.480469 204.472656 121.378906 C 203.945312 121.976562 204.847656 123.925781 204.847656 123.925781 C 204.847656 123.925781 204.621094 124.375 204.695312 125.800781 C 204.695312 125.800781 202.972656 125.351562 202.371094 122.351562 C 201.773438 119.28125 200.046875 117.78125 199.671875 114.484375 C 199.449219 117.933594 199.671875 122.726562 201.171875 129.246094 C 202.972656 136.886719 205.070312 137.039062 208.144531 136.289062 L 208.371094 138.386719 C 208.371094 138.386719 209.417969 136.964844 212.492188 136.289062 C 215.566406 135.613281 219.988281 135.015625 221.863281 133.816406 C 221.863281 133.816406 221.714844 133.367188 221.488281 132.617188 C 221.714844 132.617188 214.667969 135.089844 210.992188 134.191406 Z M 296.460938 182.441406 L 298.484375 182.441406 L 299.234375 190.835938 C 299.234375 190.835938 300.210938 192.933594 303.433594 192.855469 C 306.207031 192.855469 310.78125 191.433594 310.78125 191.433594 L 311.378906 185.066406 C 306.730469 185.890625 302.160156 183.265625 300.507812 178.847656 C 299.386719 175.773438 297.8125 172.777344 295.785156 170.902344 C 295.785156 170.902344 294.363281 169.78125 294.886719 173.527344 C 294.886719 173.527344 293.085938 172.628906 292.488281 169.480469 C 291.886719 166.332031 292.710938 162.511719 291.0625 161.3125 C 290.914062 161.3125 288.515625 176.898438 296.460938 182.441406 Z M 193 148.425781 L 187.828125 144.753906 L 185.578125 146.105469 C 185.203125 146.628906 184.753906 146.777344 184.230469 146.929688 L 183.402344 147.453125 C 182.953125 148.652344 182.503906 149.699219 182.203125 151.347656 L 186.476562 153.597656 L 193.074219 149.699219 L 193.074219 148.425781 Z M 285.441406 273.027344 C 285.738281 271.378906 283.640625 273.027344 283.640625 273.027344 C 283.640625 273.027344 284.914062 268.15625 282.816406 265.085938 C 282.816406 265.085938 288.289062 237.511719 288.140625 233.015625 C 288.0625 231.519531 288.140625 230.019531 288.214844 228.519531 C 283.265625 229.496094 278.542969 224.699219 278.542969 224.699219 L 279.21875 230.320312 C 279.21875 230.320312 273.519531 241.632812 276.820312 263.0625 C 276.820312 263.0625 275.167969 268.082031 275.769531 272.578125 C 275.917969 273.777344 280.792969 276.324219 282.214844 275.949219 C 283.789062 275.574219 285.066406 274.675781 285.441406 273.027344 Z M 327.722656 213.984375 C 325.699219 218.632812 321.5 219.082031 321.425781 219.082031 C 320.675781 219.832031 319.328125 221.703125 318.726562 222.828125 C 318.878906 223.949219 319.101562 225.074219 319.402344 225.75 L 317.527344 226.574219 C 316.703125 229.945312 316.554688 233.316406 316.476562 234.964844 C 318.652344 234.441406 321.875 233.390625 325.625 231.144531 C 328.097656 229.71875 327.722656 213.984375 327.722656 213.984375 Z M 314.679688 299.175781 C 312.730469 300.148438 310.332031 300.75 307.632812 300.824219 C 305.609375 300.898438 304.183594 301.273438 302.757812 301.796875 C 303.058594 309.140625 303.582031 322.253906 303.507812 323.003906 C 303.359375 323.976562 302.535156 324.050781 300.734375 324.125 C 300.660156 324.125 300.585938 324.125 300.433594 324.125 C 299.234375 324.199219 298.183594 325.101562 297.8125 326.222656 C 298.335938 321.953125 302.308594 310.863281 300.058594 302.847656 C 298.484375 303.445312 296.535156 303.972656 293.761719 304.195312 C 291.8125 304.421875 290.011719 303.894531 288.4375 303.148438 C 288.4375 303.148438 289.5625 328.171875 289.414062 329.21875 C 289.265625 330.195312 288.4375 330.269531 286.640625 330.34375 C 286.566406 330.34375 286.488281 330.34375 286.339844 330.34375 C 284.316406 330.496094 282.890625 332.742188 283.714844 334.839844 C 284.390625 336.714844 287.464844 337.460938 290.164062 337.910156 C 292.863281 338.363281 297.0625 340.011719 297.960938 337.910156 C 297.960938 337.910156 297.511719 332.367188 297.660156 328.097656 C 297.660156 328.246094 297.734375 328.398438 297.8125 328.546875 C 298.484375 330.417969 301.558594 331.167969 304.257812 331.617188 C 306.957031 332.066406 311.15625 333.714844 312.054688 331.617188 C 312.054688 331.617188 311.457031 324.277344 311.90625 320.078125 C 312.28125 316.632812 315.652344 307.042969 314.679688 299.175781 Z M 314.679688 299.175781 " fill-opacity="1" fill-rule="nonzero"/></svg>